<mxfile host="app.diagrams.net" modified="2023-12-06T06:44:44.135Z" agent="Mozilla/5.0 (Windows NT 10.0; Win64; x64) AppleWebKit/537.36 (KHTML, like Gecko) Chrome/118.0.0.0 Safari/537.36 OPR/104.0.0.0 (Edition Yx GX)" etag="SxcWQbzrQOdZS98B_Pnv" version="22.1.5" type="github">
  <diagram name="Страница — 1" id="xgGI4z4TAYCf0XxTRr2D">
    <mxGraphModel dx="869" dy="2622" grid="1" gridSize="10" guides="1" tooltips="1" connect="1" arrows="1" fold="1" page="1" pageScale="1" pageWidth="827" pageHeight="1169" math="0" shadow="0">
      <root>
        <mxCell id="0" />
        <mxCell id="1" parent="0" />
        <mxCell id="s9kZs_SF6sTJbTMuLNh1-1" value="" style="edgeStyle=orthogonalEdgeStyle;rounded=0;orthogonalLoop=1;jettySize=auto;html=1;" edge="1" parent="1" source="s9kZs_SF6sTJbTMuLNh1-2">
          <mxGeometry relative="1" as="geometry">
            <mxPoint x="2036.1799999999998" y="-382" as="targetPoint" />
          </mxGeometry>
        </mxCell>
        <mxCell id="s9kZs_SF6sTJbTMuLNh1-2" value="&lt;p style=&quot;line-height: 110%;&quot;&gt;&lt;span style=&quot;font-size: 18px;&quot;&gt;odd&lt;/span&gt;&lt;/p&gt;&lt;p style=&quot;line-height: 110%;&quot;&gt;&lt;span style=&quot;font-size: 18px;&quot;&gt;even&lt;/span&gt;&lt;/p&gt;" style="ellipse;whiteSpace=wrap;html=1;" vertex="1" parent="1">
          <mxGeometry x="1981.1799999999998" y="-482" width="110" height="60" as="geometry" />
        </mxCell>
        <mxCell id="s9kZs_SF6sTJbTMuLNh1-3" style="edgeStyle=orthogonalEdgeStyle;rounded=0;orthogonalLoop=1;jettySize=auto;html=1;exitX=0.5;exitY=1;exitDx=0;exitDy=0;entryX=0.5;entryY=0;entryDx=0;entryDy=0;" edge="1" parent="1" source="s9kZs_SF6sTJbTMuLNh1-4" target="s9kZs_SF6sTJbTMuLNh1-6">
          <mxGeometry relative="1" as="geometry" />
        </mxCell>
        <mxCell id="s9kZs_SF6sTJbTMuLNh1-4" value="&lt;span style=&quot;font-size: 25px;&quot;&gt;Ввод &lt;br&gt;arr, n, f, d&lt;br&gt;&lt;/span&gt;" style="shape=parallelogram;perimeter=parallelogramPerimeter;whiteSpace=wrap;html=1;fixedSize=1;" vertex="1" parent="1">
          <mxGeometry x="1960" y="-381" width="150" height="60" as="geometry" />
        </mxCell>
        <mxCell id="s9kZs_SF6sTJbTMuLNh1-5" style="edgeStyle=orthogonalEdgeStyle;rounded=0;orthogonalLoop=1;jettySize=auto;html=1;exitX=0.5;exitY=1;exitDx=0;exitDy=0;entryX=0.5;entryY=0;entryDx=0;entryDy=0;" edge="1" parent="1" source="s9kZs_SF6sTJbTMuLNh1-6" target="s9kZs_SF6sTJbTMuLNh1-9">
          <mxGeometry relative="1" as="geometry" />
        </mxCell>
        <mxCell id="s9kZs_SF6sTJbTMuLNh1-6" value="sorted = 0" style="rounded=0;whiteSpace=wrap;html=1;fontSize=20;" vertex="1" parent="1">
          <mxGeometry x="1923" y="-280" width="224" height="51" as="geometry" />
        </mxCell>
        <mxCell id="s9kZs_SF6sTJbTMuLNh1-7" style="edgeStyle=orthogonalEdgeStyle;rounded=0;orthogonalLoop=1;jettySize=auto;html=1;exitX=0;exitY=0.5;exitDx=0;exitDy=0;entryX=0.5;entryY=0;entryDx=0;entryDy=0;" edge="1" parent="1" source="s9kZs_SF6sTJbTMuLNh1-9" target="s9kZs_SF6sTJbTMuLNh1-44">
          <mxGeometry relative="1" as="geometry">
            <mxPoint x="1860" y="-100" as="targetPoint" />
          </mxGeometry>
        </mxCell>
        <mxCell id="s9kZs_SF6sTJbTMuLNh1-8" style="edgeStyle=orthogonalEdgeStyle;rounded=0;orthogonalLoop=1;jettySize=auto;html=1;exitX=1;exitY=0.5;exitDx=0;exitDy=0;entryX=0.5;entryY=0;entryDx=0;entryDy=0;" edge="1" parent="1" source="s9kZs_SF6sTJbTMuLNh1-9" target="s9kZs_SF6sTJbTMuLNh1-11">
          <mxGeometry relative="1" as="geometry">
            <mxPoint x="2200" y="-30" as="targetPoint" />
          </mxGeometry>
        </mxCell>
        <mxCell id="s9kZs_SF6sTJbTMuLNh1-9" value="&lt;span style=&quot;font-size: 20px;&quot;&gt;sorted == 0&lt;/span&gt;" style="rhombus;whiteSpace=wrap;html=1;" vertex="1" parent="1">
          <mxGeometry x="1968.4700000000003" y="-184.5" width="133.41" height="80" as="geometry" />
        </mxCell>
        <mxCell id="s9kZs_SF6sTJbTMuLNh1-10" style="edgeStyle=orthogonalEdgeStyle;rounded=0;orthogonalLoop=1;jettySize=auto;html=1;exitX=0.5;exitY=1;exitDx=0;exitDy=0;entryX=0.5;entryY=0;entryDx=0;entryDy=0;" edge="1" parent="1" source="s9kZs_SF6sTJbTMuLNh1-11" target="s9kZs_SF6sTJbTMuLNh1-14">
          <mxGeometry relative="1" as="geometry" />
        </mxCell>
        <mxCell id="s9kZs_SF6sTJbTMuLNh1-11" value="sorted = 1" style="rounded=0;whiteSpace=wrap;html=1;fontSize=20;" vertex="1" parent="1">
          <mxGeometry x="2091.18" y="-30" width="224" height="51" as="geometry" />
        </mxCell>
        <mxCell id="s9kZs_SF6sTJbTMuLNh1-12" style="edgeStyle=orthogonalEdgeStyle;rounded=0;orthogonalLoop=1;jettySize=auto;html=1;exitX=0.5;exitY=1;exitDx=0;exitDy=0;" edge="1" parent="1" source="s9kZs_SF6sTJbTMuLNh1-14">
          <mxGeometry relative="1" as="geometry">
            <mxPoint x="2203.608695652174" y="170" as="targetPoint" />
          </mxGeometry>
        </mxCell>
        <mxCell id="s9kZs_SF6sTJbTMuLNh1-13" style="edgeStyle=orthogonalEdgeStyle;rounded=0;orthogonalLoop=1;jettySize=auto;html=1;exitX=1;exitY=0.5;exitDx=0;exitDy=0;" edge="1" parent="1" source="s9kZs_SF6sTJbTMuLNh1-14">
          <mxGeometry relative="1" as="geometry">
            <mxPoint x="2360" y="94.27272727272702" as="targetPoint" />
          </mxGeometry>
        </mxCell>
        <mxCell id="s9kZs_SF6sTJbTMuLNh1-14" value="&lt;font style=&quot;font-size: 21px;&quot;&gt;i = 1; i &amp;lt; n - 2; i += 2&lt;/font&gt;" style="shape=hexagon;perimeter=hexagonPerimeter2;whiteSpace=wrap;html=1;fixedSize=1;" vertex="1" parent="1">
          <mxGeometry x="2099.09" y="70" width="208.18" height="50" as="geometry" />
        </mxCell>
        <mxCell id="s9kZs_SF6sTJbTMuLNh1-15" style="edgeStyle=orthogonalEdgeStyle;rounded=0;orthogonalLoop=1;jettySize=auto;html=1;exitX=0.5;exitY=1;exitDx=0;exitDy=0;entryX=0.5;entryY=0;entryDx=0;entryDy=0;" edge="1" parent="1" source="s9kZs_SF6sTJbTMuLNh1-16">
          <mxGeometry relative="1" as="geometry">
            <mxPoint x="2203.1749999999997" y="287" as="targetPoint" />
          </mxGeometry>
        </mxCell>
        <mxCell id="s9kZs_SF6sTJbTMuLNh1-16" value="cmp = compateAbonent(arr[i], arr[i + 1], f)" style="rounded=0;whiteSpace=wrap;html=1;fontSize=20;" vertex="1" parent="1">
          <mxGeometry x="2017.68" y="170" width="371" height="51" as="geometry" />
        </mxCell>
        <mxCell id="s9kZs_SF6sTJbTMuLNh1-17" style="edgeStyle=orthogonalEdgeStyle;rounded=0;orthogonalLoop=1;jettySize=auto;html=1;exitX=0;exitY=0.5;exitDx=0;exitDy=0;entryX=0.5;entryY=0;entryDx=0;entryDy=0;" edge="1" parent="1" source="s9kZs_SF6sTJbTMuLNh1-19" target="s9kZs_SF6sTJbTMuLNh1-22">
          <mxGeometry relative="1" as="geometry">
            <mxPoint x="2074" y="506" as="targetPoint" />
          </mxGeometry>
        </mxCell>
        <mxCell id="s9kZs_SF6sTJbTMuLNh1-18" style="edgeStyle=orthogonalEdgeStyle;rounded=0;orthogonalLoop=1;jettySize=auto;html=1;exitX=1;exitY=0.5;exitDx=0;exitDy=0;entryX=0;entryY=0.5;entryDx=0;entryDy=0;" edge="1" parent="1" source="s9kZs_SF6sTJbTMuLNh1-19" target="s9kZs_SF6sTJbTMuLNh1-14">
          <mxGeometry relative="1" as="geometry">
            <mxPoint x="2200" y="760" as="targetPoint" />
            <Array as="points">
              <mxPoint x="2320" y="326" />
              <mxPoint x="2320" y="600" />
              <mxPoint x="2201" y="600" />
              <mxPoint x="2201" y="750" />
              <mxPoint x="1880" y="750" />
              <mxPoint x="1880" y="95" />
            </Array>
          </mxGeometry>
        </mxCell>
        <mxCell id="s9kZs_SF6sTJbTMuLNh1-19" value="&lt;span style=&quot;font-size: 20px;&quot;&gt;cmp == d&lt;/span&gt;" style="rhombus;whiteSpace=wrap;html=1;" vertex="1" parent="1">
          <mxGeometry x="2137.29" y="286" width="133.41" height="80" as="geometry" />
        </mxCell>
        <mxCell id="s9kZs_SF6sTJbTMuLNh1-20" value="&lt;font style=&quot;font-size: 23px;&quot;&gt;Да&lt;/font&gt;" style="edgeLabel;html=1;align=center;verticalAlign=middle;resizable=0;points=[];" vertex="1" connectable="0" parent="1">
          <mxGeometry x="2109.0014285714287" y="323.0000000000002" as="geometry" />
        </mxCell>
        <mxCell id="s9kZs_SF6sTJbTMuLNh1-21" style="edgeStyle=orthogonalEdgeStyle;rounded=0;orthogonalLoop=1;jettySize=auto;html=1;exitX=0.5;exitY=1;exitDx=0;exitDy=0;entryX=0.5;entryY=0;entryDx=0;entryDy=0;" edge="1" parent="1" source="s9kZs_SF6sTJbTMuLNh1-22" target="s9kZs_SF6sTJbTMuLNh1-24">
          <mxGeometry relative="1" as="geometry" />
        </mxCell>
        <mxCell id="s9kZs_SF6sTJbTMuLNh1-22" value="swap(arr[i], arr[i + 1])" style="rounded=0;whiteSpace=wrap;html=1;fontSize=20;" vertex="1" parent="1">
          <mxGeometry x="1956" y="380" width="224" height="51" as="geometry" />
        </mxCell>
        <mxCell id="s9kZs_SF6sTJbTMuLNh1-23" style="edgeStyle=orthogonalEdgeStyle;rounded=0;orthogonalLoop=1;jettySize=auto;html=1;exitX=0.5;exitY=1;exitDx=0;exitDy=0;endArrow=none;endFill=0;" edge="1" parent="1" source="s9kZs_SF6sTJbTMuLNh1-24">
          <mxGeometry relative="1" as="geometry">
            <mxPoint x="2201" y="660" as="targetPoint" />
            <Array as="points">
              <mxPoint x="2066" y="600" />
              <mxPoint x="2201" y="600" />
              <mxPoint x="2201" y="660" />
            </Array>
          </mxGeometry>
        </mxCell>
        <mxCell id="s9kZs_SF6sTJbTMuLNh1-24" value="sorted = 0" style="rounded=0;whiteSpace=wrap;html=1;fontSize=20;" vertex="1" parent="1">
          <mxGeometry x="1956" y="491" width="224" height="51" as="geometry" />
        </mxCell>
        <mxCell id="s9kZs_SF6sTJbTMuLNh1-25" style="edgeStyle=orthogonalEdgeStyle;rounded=0;orthogonalLoop=1;jettySize=auto;html=1;exitX=0.5;exitY=1;exitDx=0;exitDy=0;entryX=0.5;entryY=0;entryDx=0;entryDy=0;" edge="1" parent="1" source="s9kZs_SF6sTJbTMuLNh1-27" target="s9kZs_SF6sTJbTMuLNh1-37">
          <mxGeometry relative="1" as="geometry">
            <mxPoint x="2843.608695652174" y="165.45" as="targetPoint" />
          </mxGeometry>
        </mxCell>
        <mxCell id="s9kZs_SF6sTJbTMuLNh1-26" style="edgeStyle=orthogonalEdgeStyle;rounded=0;orthogonalLoop=1;jettySize=auto;html=1;exitX=1;exitY=0.5;exitDx=0;exitDy=0;" edge="1" parent="1" source="s9kZs_SF6sTJbTMuLNh1-27">
          <mxGeometry relative="1" as="geometry">
            <mxPoint x="2036" y="-209" as="targetPoint" />
            <mxPoint x="2943.2700000000004" y="81.45000000000005" as="sourcePoint" />
            <Array as="points">
              <mxPoint x="3016" y="90" />
              <mxPoint x="3016" y="-209" />
            </Array>
          </mxGeometry>
        </mxCell>
        <mxCell id="s9kZs_SF6sTJbTMuLNh1-27" value="&lt;font style=&quot;font-size: 21px;&quot;&gt;i = 0; i &amp;lt; n - 2; i += 2&lt;/font&gt;" style="shape=hexagon;perimeter=hexagonPerimeter2;whiteSpace=wrap;html=1;fixedSize=1;" vertex="1" parent="1">
          <mxGeometry x="2739.09" y="65.45" width="208.18" height="50" as="geometry" />
        </mxCell>
        <mxCell id="s9kZs_SF6sTJbTMuLNh1-28" style="edgeStyle=orthogonalEdgeStyle;rounded=0;orthogonalLoop=1;jettySize=auto;html=1;exitX=0.5;exitY=1;exitDx=0;exitDy=0;entryX=0.5;entryY=0;entryDx=0;entryDy=0;" edge="1" parent="1">
          <mxGeometry relative="1" as="geometry">
            <mxPoint x="2843" y="216.45" as="sourcePoint" />
            <mxPoint x="2843.1749999999997" y="282.45" as="targetPoint" />
          </mxGeometry>
        </mxCell>
        <mxCell id="s9kZs_SF6sTJbTMuLNh1-29" style="edgeStyle=orthogonalEdgeStyle;rounded=0;orthogonalLoop=1;jettySize=auto;html=1;exitX=0;exitY=0.5;exitDx=0;exitDy=0;entryX=0.5;entryY=0;entryDx=0;entryDy=0;" edge="1" parent="1" source="s9kZs_SF6sTJbTMuLNh1-31" target="s9kZs_SF6sTJbTMuLNh1-34">
          <mxGeometry relative="1" as="geometry">
            <mxPoint x="2714" y="501.45" as="targetPoint" />
          </mxGeometry>
        </mxCell>
        <mxCell id="s9kZs_SF6sTJbTMuLNh1-30" style="edgeStyle=orthogonalEdgeStyle;rounded=0;orthogonalLoop=1;jettySize=auto;html=1;exitX=1;exitY=0.5;exitDx=0;exitDy=0;entryX=0;entryY=0.5;entryDx=0;entryDy=0;" edge="1" parent="1" source="s9kZs_SF6sTJbTMuLNh1-31" target="s9kZs_SF6sTJbTMuLNh1-27">
          <mxGeometry relative="1" as="geometry">
            <mxPoint x="2840" y="755.45" as="targetPoint" />
            <Array as="points">
              <mxPoint x="2960" y="321.45" />
              <mxPoint x="2960" y="595.45" />
              <mxPoint x="2841" y="595.45" />
              <mxPoint x="2841" y="745.45" />
              <mxPoint x="2520" y="745.45" />
              <mxPoint x="2520" y="90.45" />
            </Array>
          </mxGeometry>
        </mxCell>
        <mxCell id="s9kZs_SF6sTJbTMuLNh1-31" value="&lt;span style=&quot;font-size: 20px;&quot;&gt;cmp == d&lt;/span&gt;" style="rhombus;whiteSpace=wrap;html=1;" vertex="1" parent="1">
          <mxGeometry x="2777.29" y="281.45" width="133.41" height="80" as="geometry" />
        </mxCell>
        <mxCell id="s9kZs_SF6sTJbTMuLNh1-32" value="&lt;font style=&quot;font-size: 23px;&quot;&gt;Да&lt;/font&gt;" style="edgeLabel;html=1;align=center;verticalAlign=middle;resizable=0;points=[];" vertex="1" connectable="0" parent="1">
          <mxGeometry x="2749.0014285714287" y="318.4500000000002" as="geometry" />
        </mxCell>
        <mxCell id="s9kZs_SF6sTJbTMuLNh1-33" style="edgeStyle=orthogonalEdgeStyle;rounded=0;orthogonalLoop=1;jettySize=auto;html=1;exitX=0.5;exitY=1;exitDx=0;exitDy=0;entryX=0.5;entryY=0;entryDx=0;entryDy=0;" edge="1" parent="1" source="s9kZs_SF6sTJbTMuLNh1-34" target="s9kZs_SF6sTJbTMuLNh1-36">
          <mxGeometry relative="1" as="geometry" />
        </mxCell>
        <mxCell id="s9kZs_SF6sTJbTMuLNh1-34" value="swap(arr[i], arr[i + 1])" style="rounded=0;whiteSpace=wrap;html=1;fontSize=20;" vertex="1" parent="1">
          <mxGeometry x="2596" y="375.45" width="224" height="51" as="geometry" />
        </mxCell>
        <mxCell id="s9kZs_SF6sTJbTMuLNh1-35" style="edgeStyle=orthogonalEdgeStyle;rounded=0;orthogonalLoop=1;jettySize=auto;html=1;exitX=0.5;exitY=1;exitDx=0;exitDy=0;endArrow=none;endFill=0;" edge="1" parent="1" source="s9kZs_SF6sTJbTMuLNh1-36">
          <mxGeometry relative="1" as="geometry">
            <mxPoint x="2841" y="655.45" as="targetPoint" />
            <Array as="points">
              <mxPoint x="2706" y="595.45" />
              <mxPoint x="2841" y="595.45" />
              <mxPoint x="2841" y="655.45" />
            </Array>
          </mxGeometry>
        </mxCell>
        <mxCell id="s9kZs_SF6sTJbTMuLNh1-36" value="sorted = 0" style="rounded=0;whiteSpace=wrap;html=1;fontSize=20;" vertex="1" parent="1">
          <mxGeometry x="2596" y="486.45" width="224" height="51" as="geometry" />
        </mxCell>
        <mxCell id="s9kZs_SF6sTJbTMuLNh1-37" value="cmp = compateAbonent(arr[i], arr[i + 1], f)" style="rounded=0;whiteSpace=wrap;html=1;fontSize=20;" vertex="1" parent="1">
          <mxGeometry x="2657.5" y="175.45" width="371" height="51" as="geometry" />
        </mxCell>
        <mxCell id="s9kZs_SF6sTJbTMuLNh1-38" value="" style="ellipse;whiteSpace=wrap;html=1;aspect=fixed;" vertex="1" parent="1">
          <mxGeometry x="2360" y="70" width="50" height="50" as="geometry" />
        </mxCell>
        <mxCell id="s9kZs_SF6sTJbTMuLNh1-39" style="edgeStyle=orthogonalEdgeStyle;rounded=0;orthogonalLoop=1;jettySize=auto;html=1;exitX=0.5;exitY=1;exitDx=0;exitDy=0;entryX=0.5;entryY=0;entryDx=0;entryDy=0;" edge="1" parent="1" source="s9kZs_SF6sTJbTMuLNh1-40" target="s9kZs_SF6sTJbTMuLNh1-27">
          <mxGeometry relative="1" as="geometry" />
        </mxCell>
        <mxCell id="s9kZs_SF6sTJbTMuLNh1-40" value="" style="ellipse;whiteSpace=wrap;html=1;aspect=fixed;" vertex="1" parent="1">
          <mxGeometry x="2818" y="-29" width="50" height="50" as="geometry" />
        </mxCell>
        <mxCell id="s9kZs_SF6sTJbTMuLNh1-41" value="&lt;font style=&quot;font-size: 23px;&quot;&gt;Да&lt;/font&gt;" style="edgeLabel;html=1;align=center;verticalAlign=middle;resizable=0;points=[];" vertex="1" connectable="0" parent="1">
          <mxGeometry x="2155.0014285714287" y="-147.49999999999977" as="geometry" />
        </mxCell>
        <mxCell id="s9kZs_SF6sTJbTMuLNh1-42" style="edgeStyle=orthogonalEdgeStyle;rounded=0;orthogonalLoop=1;jettySize=auto;html=1;exitX=0.5;exitY=1;exitDx=0;exitDy=0;entryX=0.5;entryY=0;entryDx=0;entryDy=0;" edge="1" parent="1" source="s9kZs_SF6sTJbTMuLNh1-44" target="s9kZs_SF6sTJbTMuLNh1-43">
          <mxGeometry relative="1" as="geometry">
            <mxPoint x="1785" y="-11" as="sourcePoint" />
          </mxGeometry>
        </mxCell>
        <mxCell id="s9kZs_SF6sTJbTMuLNh1-43" value="&lt;p style=&quot;line-height: 110%;&quot;&gt;&lt;span style=&quot;font-size: 18px;&quot;&gt;Конец&lt;/span&gt;&lt;/p&gt;" style="ellipse;whiteSpace=wrap;html=1;" vertex="1" parent="1">
          <mxGeometry x="1730" y="71" width="110" height="60" as="geometry" />
        </mxCell>
        <mxCell id="s9kZs_SF6sTJbTMuLNh1-44" value="&lt;span style=&quot;font-size: 25px;&quot;&gt;Вывод&lt;br&gt;arr&lt;br&gt;&lt;/span&gt;" style="shape=parallelogram;perimeter=parallelogramPerimeter;whiteSpace=wrap;html=1;fixedSize=1;" vertex="1" parent="1">
          <mxGeometry x="1710" y="-23.5" width="150" height="60" as="geometry" />
        </mxCell>
      </root>
    </mxGraphModel>
  </diagram>
</mxfile>
